<svg width="70" height="70" viewBox="0 0 70 70" fill="none" xmlns="http://www.w3.org/2000/svg">
<path d="M19.1201 9.64075C20.6243 8.13655 22.6644 7.2915 24.7917 7.2915H32.8125V23.3332H24.7917C22.6644 23.3332 20.6243 22.4881 19.1201 20.9839C17.6159 19.4797 16.7709 17.4396 16.7709 15.3123C16.7709 13.1851 17.6159 11.1449 19.1201 9.64075Z" fill="white"/>
<path d="M45.2084 23.3332H37.1875V7.2915H45.2084C46.2617 7.2915 47.3047 7.49897 48.2778 7.90205C49.2509 8.30514 50.1352 8.89595 50.88 9.64075C51.6248 10.3855 52.2156 11.2698 52.6186 12.2429C53.0217 13.216 53.2292 14.259 53.2292 15.3123C53.2292 16.3656 53.0217 17.4086 52.6186 18.3818C52.2156 19.3549 51.6248 20.2391 50.88 20.9839C50.1352 21.7287 49.2509 22.3195 48.2778 22.7226C47.3047 23.1257 46.2617 23.3332 45.2084 23.3332Z" fill="white"/>
<path d="M45.2084 27.7082C44.1551 27.7082 43.1121 27.9156 42.1389 28.3187C41.1658 28.7218 40.2816 29.3126 39.5368 30.0574C38.792 30.8022 38.2012 31.6864 37.7981 32.6596C37.395 33.6327 37.1875 34.6757 37.1875 35.729C37.1875 36.7823 37.395 37.8253 37.7981 38.7984C38.2012 39.7716 38.792 40.6558 39.5368 41.4006C40.2816 42.1454 41.1658 42.7362 42.1389 43.1393C43.1121 43.5424 44.1551 43.7498 45.2084 43.7498C46.2617 43.7498 47.3047 43.5424 48.2778 43.1393C49.2509 42.7362 50.1352 42.1454 50.88 41.4006C51.6248 40.6558 52.2156 39.7716 52.6186 38.7984C53.0217 37.8253 53.2292 36.7823 53.2292 35.729C53.2292 34.6757 53.0217 33.6327 52.6186 32.6596C52.2156 31.6864 51.6248 30.8022 50.88 30.0574C50.1352 29.3126 49.2509 28.7218 48.2778 28.3187C47.3047 27.9156 46.2617 27.7082 45.2084 27.7082Z" fill="white"/>
<path d="M19.1201 50.4741C20.6243 48.9699 22.6644 48.1248 24.7917 48.1248H32.8125V56.1457C32.8125 58.2729 31.9675 60.313 30.4633 61.8172C28.9591 63.3214 26.919 64.1665 24.7917 64.1665C22.6644 64.1665 20.6243 63.3214 19.1201 61.8172C17.6159 60.313 16.7709 58.2729 16.7709 56.1457C16.7709 54.0184 17.6159 51.9783 19.1201 50.4741Z" fill="white"/>
<path d="M24.7917 27.7082C22.6644 27.7082 20.6243 28.5532 19.1201 30.0574C17.6159 31.5616 16.7709 33.6017 16.7709 35.729C16.7709 37.8562 17.6159 39.8964 19.1201 41.4006C20.6243 42.9048 22.6644 43.7498 24.7917 43.7498H32.8125V27.7082H24.7917Z" fill="white"/>
</svg>
